<mxfile host="app.diagrams.net" modified="2023-12-15T01:56:05.704Z" agent="Mozilla/5.0 (Windows NT 10.0; Win64; x64) AppleWebKit/537.36 (KHTML, like Gecko) Chrome/120.0.0.0 Safari/537.36" version="22.1.8" etag="ymjtLB_ipsTOZOZqxIeJ" type="github">
  <diagram name="第 1 页" id="KKqlR6FgB6_UbVZdChz9">
    <mxGraphModel>
      <root>
        <mxCell id="0" />
        <mxCell id="1" parent="0" />
      </root>
    </mxGraphModel>
  </diagram>
</mxfile>
